<svg width="25" height="21" fill="none" xmlns="http://www.w3.org/2000/svg"><path d="M23.445.238H1.555C.697.238 0 .935 0 1.793v1.83c0 .857.697 1.554 1.555 1.554h.728l8.035 8.035v7.034a.518.518 0 00.884.367l3.348-3.348a.519.519 0 00.152-.367v-3.686l8.035-8.035h.708c.858 0 1.555-.697 1.555-1.555v-1.83c0-.857-.698-1.554-1.555-1.554zm-9.628 12.393a.517.517 0 00-.152.371v3.682l-2.31 2.311V13a.517.517 0 00-.153-.368L3.748 5.177h17.523l-7.454 7.454zm10.146-9.009a.519.519 0 01-.518.519H1.555a.519.519 0 01-.519-.519v-1.83c0-.285.233-.518.519-.518h21.89c.286 0 .519.233.519.519v1.83z" fill="#535353"/></svg>
