<svg width="278" height="52" viewBox="0 0 278 52" fill="none" xmlns="http://www.w3.org/2000/svg">
<path d="M0 0.466064H4.29102V8.58528L11.9164 0.466064H17.2737L9.64812 8.20143L18.0115 20.0507H12.6271L6.75074 11.2459L4.29102 13.7419V20.0507H0V0.466064Z" fill="#1A1918"/>
<path d="M24.5668 5.48608C29.0221 5.48608 31.892 8.44815 31.892 12.9739C31.892 17.4724 29.0221 20.4347 24.5668 20.4347C20.1399 20.4347 17.2695 17.4721 17.2695 12.9739C17.2695 8.4479 20.1397 5.48608 24.5668 5.48608ZM24.5668 17.4999C27.218 17.4999 28.0112 15.2236 28.0112 12.9739C28.0112 10.6976 27.218 8.42059 24.5668 8.42059C21.943 8.42059 21.1504 10.6976 21.1504 12.9739C21.1504 15.2234 21.9428 17.4999 24.5668 17.4999Z" fill="#1A1918"/>
<path d="M43.6137 10.8615C43.3683 9.27073 42.3567 8.42035 40.7446 8.42035C38.2569 8.42035 37.4367 10.9437 37.4367 13.0285C37.4367 15.0585 38.2292 17.4997 40.6622 17.4997C42.4663 17.4997 43.5041 16.3474 43.7503 14.6193H47.4951C47.0027 18.3774 44.4062 20.4347 40.6894 20.4347C36.4256 20.4347 33.5557 17.4173 33.5557 13.1658C33.5557 8.74957 36.1794 5.48584 40.7713 5.48584C44.1056 5.48584 47.1665 7.24147 47.4127 10.8615H43.6133H43.6137Z" fill="#1A1918"/>
<path d="M49.2954 0.466064H53.1767V7.84464H53.2589C54.2428 6.25387 55.9373 5.48592 57.3859 5.48592C61.5129 5.48592 62.5515 7.81708 62.5515 11.3281V20.0504H58.6706V12.0412C58.6706 9.70977 57.9868 8.55772 56.183 8.55772C54.0785 8.55772 53.1767 9.73733 53.1767 12.617V20.0507H49.2954V0.466064Z" fill="#1A1918"/>
<path d="M78.4561 7.04935C78.1825 5.10179 76.324 3.62076 74.1923 3.62076C70.3382 3.62076 68.8899 6.91205 68.8899 10.3406C68.8899 13.6046 70.3382 16.8966 74.1923 16.8966C76.8161 16.8966 78.2919 15.0864 78.6199 12.5079H82.7744C82.3374 17.39 78.975 20.5167 74.1923 20.5167C68.1519 20.5167 64.5986 15.9914 64.5986 10.3406C64.5986 4.52601 68.1519 0 74.1923 0C78.4834 0 82.0913 2.52334 82.6101 7.04935H78.4559H78.4561Z" fill="#A9A8A9"/>
<path d="M84.8745 0.466064H88.7561V7.84464H88.838C89.8221 6.25387 91.5166 5.48592 92.965 5.48592C97.0919 5.48592 98.1306 7.81708 98.1306 11.3281V20.0504H94.2497V12.0412C94.2497 9.70977 93.5659 8.55772 91.7621 8.55772C89.6579 8.55772 88.7561 9.73733 88.7561 12.617V20.0507H84.8745V0.466064Z" fill="#A9A8A9"/>
<path d="M103.894 13.9065C104.003 16.3749 105.206 17.4997 107.365 17.4997C108.923 17.4997 110.18 16.5396 110.426 15.6616H113.842C112.75 19.0078 110.426 20.4347 107.229 20.4347C102.773 20.4347 100.013 17.3624 100.013 12.9739C100.013 8.7225 102.938 5.48608 107.229 5.48608C112.039 5.48608 114.362 9.54532 114.089 13.9067H103.894V13.9065ZM110.207 11.4378C109.852 9.46265 109.005 8.42035 107.119 8.42035C104.659 8.42035 103.949 10.3403 103.894 11.4378H110.207H110.207Z" fill="#A9A8A9"/>
<path d="M116.107 5.86969H119.77V7.78994H119.825C120.837 6.33622 122.312 5.48608 124.143 5.48608C125.92 5.48608 127.505 6.14429 128.27 7.84481C129.09 6.61009 130.567 5.48608 132.534 5.48608C135.541 5.48608 137.7 6.88444 137.7 10.5603V20.0506H133.819V12.0138C133.819 10.1211 133.655 8.55765 131.441 8.55765C129.254 8.55765 128.845 10.3679 128.845 12.1508V20.0503H124.963V12.096C124.963 10.4506 125.073 8.55765 122.613 8.55765C121.848 8.55765 119.989 9.05173 119.989 11.8214V20.0503H116.107V5.86945V5.86969Z" fill="#A9A8A9"/>
<path d="M143.817 3.67566H139.936V0.466064H143.817V3.67566ZM139.936 5.86977H143.817V20.0507H139.936V5.86977Z" fill="#A9A8A9"/>
<path d="M149.692 13.9065C149.801 16.3749 151.003 17.4997 153.163 17.4997C154.721 17.4997 155.978 16.5396 156.224 15.6616H159.64C158.548 19.0078 156.224 20.4347 153.026 20.4347C148.571 20.4347 145.811 17.3624 145.811 12.9739C145.811 8.7225 148.735 5.48608 153.026 5.48608C157.836 5.48608 160.16 9.54532 159.887 13.9067H149.692V13.9065ZM156.005 11.4378C155.65 9.46265 154.803 8.42035 152.917 8.42035C150.457 8.42035 149.747 10.3403 149.692 11.4378H156.005H156.005Z" fill="#A9A8A9"/>
<path d="M162.979 2.6936C164.374 2.6936 165.544 3.79907 165.544 5.24645C165.544 6.72212 164.375 7.82686 162.979 7.82686C161.578 7.82686 160.401 6.72212 160.401 5.24645C160.401 3.79907 161.578 2.6936 162.979 2.6936ZM162.979 7.4491C164.162 7.4491 165.079 6.50263 165.079 5.24645C165.079 4.01856 164.162 3.07112 162.979 3.07112C161.783 3.07112 160.866 4.01856 160.866 5.24645C160.866 6.50263 161.783 7.4491 162.979 7.4491ZM161.981 3.75737H163.137C163.848 3.75737 164.183 4.03856 164.183 4.61507C164.183 5.15744 163.841 5.38375 163.396 5.43179L164.252 6.75602H163.752L162.939 5.46594H162.446V6.75602H161.981V3.75737ZM162.446 5.08842H162.932C163.342 5.08842 163.718 5.06818 163.718 4.59434C163.718 4.19658 163.376 4.13488 163.061 4.13488H162.446V5.08842H162.446Z" fill="#8F8F8C"/>
<path d="M0 27.4233H14.595V31.0441H4.29102V35.2406H13.7477V38.5875H4.29102V43.3872H14.8137V47.0079H0V27.4233Z" fill="#1A1918"/>
<path d="M20.4944 39.547L15.8485 32.8271H20.2757L22.7636 36.5303L25.223 32.8271H29.5143L24.8675 39.4656L30.088 47.008H25.6602L22.7086 42.5371L19.7568 47.008H15.4106L20.4944 39.547Z" fill="#1A1918"/>
<path d="M39.8423 37.8188C39.5968 36.228 38.5854 35.3776 36.9731 35.3776C34.4854 35.3776 33.6652 37.9012 33.6652 39.9861C33.6652 42.0158 34.4577 44.457 36.8907 44.457C38.6948 44.457 39.7327 43.3049 39.9788 41.5768H43.7236C43.2312 45.3349 40.6347 47.3922 36.9179 47.3922C32.6541 47.3922 29.7842 44.3748 29.7842 40.1234C29.7842 35.7071 32.4079 32.4431 37 32.4431C40.3343 32.4431 43.3953 34.1987 43.6414 37.8188H39.8418H39.8423Z" fill="#1A1918"/>
<path d="M48.9958 40.8638C49.1054 43.3325 50.3076 44.457 52.4669 44.457C54.0248 44.457 55.2817 43.4968 55.5278 42.6191H58.9445C57.8517 45.9653 55.5278 47.3922 52.3304 47.3922C47.8753 47.3922 45.1147 44.3197 45.1147 39.9312C45.1147 35.6798 48.0396 32.4434 52.3304 32.4434C57.1404 32.4434 59.4643 36.5028 59.1907 40.864H48.9958V40.8638ZM55.3091 38.3953C54.9544 36.4202 54.107 35.3776 52.221 35.3776C49.7613 35.3776 49.0507 37.2979 48.9961 38.3953H55.3094H55.3091Z" fill="#1A1918"/>
<path d="M61.209 27.4233H65.0903V47.0079H61.209V27.4233Z" fill="#1A1918"/>
<path d="M67.8496 27.4233H71.7309V47.0079H67.8496V27.4233Z" fill="#1A1918"/>
<path d="M77.5788 40.8638C77.6882 43.3325 78.8906 44.457 81.0499 44.457C82.6076 44.457 83.8647 43.4968 84.1109 42.6191H87.5273C86.4347 45.9653 84.1109 47.3922 80.9134 47.3922C76.4583 47.3922 73.6978 44.3197 73.6978 39.9312C73.6978 35.6798 76.6226 32.4434 80.9134 32.4434C85.7234 32.4434 88.0471 36.5028 87.7737 40.864H77.5788V40.8638ZM83.8921 38.3953C83.5371 36.4202 82.69 35.3776 80.804 35.3776C78.3443 35.3776 77.6337 37.2979 77.5791 38.3953H83.8924H83.8921Z" fill="#1A1918"/>
<path d="M89.6829 32.827H93.3727V34.8021H93.4546C94.4388 33.2113 96.1332 32.4431 97.7731 32.4431C101.9 32.4431 102.939 34.7745 102.939 38.2855V47.0079H99.0578V38.9984C99.0578 36.6672 98.374 35.5149 96.5702 35.5149C94.4657 35.5149 93.5639 36.6945 93.5639 39.5744V47.0081H89.6826V32.8272L89.6829 32.827Z" fill="#1A1918"/>
<path d="M115.125 37.8188C114.88 36.228 113.868 35.3776 112.256 35.3776C109.768 35.3776 108.948 37.9012 108.948 39.9861C108.948 42.0158 109.74 44.457 112.173 44.457C113.977 44.457 115.015 43.3049 115.262 41.5768H119.006C118.514 45.3349 115.917 47.3922 112.201 47.3922C107.937 47.3922 105.067 44.3748 105.067 40.1234C105.067 35.7071 107.691 32.4431 112.283 32.4431C115.617 32.4431 118.678 34.1987 118.924 37.8188H115.124H115.125Z" fill="#1A1918"/>
<path d="M124.278 40.8638C124.388 43.3325 125.59 44.457 127.749 44.457C129.307 44.457 130.564 43.4968 130.81 42.6191H134.227C133.134 45.9653 130.81 47.3922 127.613 47.3922C123.158 47.3922 120.397 44.3197 120.397 39.9312C120.397 35.6798 123.322 32.4434 127.613 32.4434C132.423 32.4434 134.746 36.5028 134.473 40.864H124.278V40.8638ZM130.591 38.3953C130.236 36.4202 129.389 35.3776 127.503 35.3776C125.044 35.3776 124.333 37.2979 124.278 38.3953H130.592H130.591Z" fill="#1A1918"/>
<path d="M136.792 27.4233H150.512V31.0441H141.083V35.5701H149.255V38.9163H141.083V47.0079H136.792V27.4233Z" fill="#1A1918"/>
<path d="M158.244 32.4431C162.699 32.4431 165.569 35.4052 165.569 39.9309C165.569 44.4294 162.699 47.392 158.244 47.392C153.817 47.392 150.947 44.4292 150.947 39.9309C150.947 35.4049 153.817 32.4431 158.244 32.4431ZM158.244 44.457C160.895 44.457 161.688 42.1807 161.688 39.9309C161.688 37.6547 160.895 35.3776 158.244 35.3776C155.62 35.3776 154.828 37.6547 154.828 39.9309C154.828 42.1804 155.62 44.457 158.244 44.457Z" fill="#1A1918"/>
<path d="M167.67 32.827H171.36V35.4601H171.414C172.125 33.6771 174.038 32.4431 175.924 32.4431C176.198 32.4431 176.526 32.4982 176.772 32.5797V36.2004C176.416 36.1183 175.843 36.0631 175.377 36.0631C172.536 36.0631 171.551 38.1207 171.551 40.6165V47.0076H167.67V32.8267L167.67 32.827Z" fill="#1A1918"/>
<path d="M178.327 27.4233H192.922V31.0441H182.618V35.2406H192.075V38.5875H182.618V43.3872H193.141V47.0079H178.327V27.4233Z" fill="#1A1918"/>
<path d="M198.85 39.547L194.204 32.8271H198.631L201.119 36.5303L203.578 32.8271H207.869L203.223 39.4656L208.443 47.008H204.015L201.064 42.5371L198.112 47.008H193.766L198.85 39.547Z" fill="#1A1918"/>
<path d="M209.532 32.827H213.223V34.6372H213.277C214.206 33.1286 215.737 32.4431 217.486 32.4431C221.914 32.4431 223.91 36.0358 223.91 40.0682C223.91 43.8539 221.832 47.3922 217.705 47.3922C216.011 47.3922 214.398 46.6511 213.469 45.2525H213.414V51.9999H209.532V32.827H209.532ZM220.028 39.9585C220.028 37.7098 219.126 35.3776 216.639 35.3776C214.097 35.3776 213.277 37.6547 213.277 39.9585C213.277 42.2624 214.152 44.457 216.666 44.457C219.208 44.457 220.028 42.2624 220.028 39.9585Z" fill="#1A1918"/>
<path d="M229.018 40.8638C229.127 43.3325 230.329 44.457 232.489 44.457C234.046 44.457 235.303 43.4968 235.55 42.6191H238.966C237.873 45.9653 235.55 47.3922 232.352 47.3922C227.897 47.3922 225.136 44.3197 225.136 39.9312C225.136 35.6798 228.061 32.4434 232.352 32.4434C237.162 32.4434 239.486 36.5028 239.212 40.864H229.018V40.8638ZM235.331 38.3953C234.976 36.4202 234.128 35.3776 232.242 35.3776C229.783 35.3776 229.072 37.2979 229.018 38.3953H235.331H235.331Z" fill="#1A1918"/>
<path d="M257.64 35.3983V32.8203H254.829V28.6165H250.991V32.8203H248.965C246.839 32.8203 245.132 33.6209 244.387 35.331H244.333V32.8203H240.685V46.8461H244.522V40.0065C244.522 37.3878 245.693 35.3993 249.55 35.398H250.991V43.6716C250.991 46.4661 253.045 47.0075 255.397 47.0075C256.154 47.0075 256.991 46.9802 257.64 46.8719V43.8621C257.234 43.943 256.856 43.9704 256.45 43.9704C255.154 43.9704 254.828 43.6443 254.828 42.3428V35.3978H257.64L257.64 35.3983Z" fill="#1A1918"/>
<path d="M262.26 42.3997C262.287 44.1002 263.708 44.7864 265.238 44.7864C266.359 44.7864 267.781 44.3472 267.781 42.9759C267.781 41.7963 266.168 41.3844 263.38 40.7813C261.139 40.2877 258.898 39.4925 258.898 36.9957C258.898 33.3757 262.013 32.4431 265.048 32.4431C268.136 32.4431 270.979 33.4849 271.279 36.9686H267.59C267.48 35.4601 266.332 35.0491 264.938 35.0491C264.064 35.0491 262.779 35.2133 262.779 36.3653C262.779 37.7644 264.966 37.9561 267.179 38.4777C269.448 38.9986 271.662 39.8214 271.662 42.4545C271.662 46.185 268.437 47.3922 265.212 47.3922C261.931 47.3922 258.734 46.1575 258.57 42.3997H262.26H262.26Z" fill="#1A1918"/>
<path d="M273.708 42.7839H278V47.0078H273.708V42.7839Z" fill="#1A1918"/>
</svg>
