<svg width="28" height="28" fill="none" xmlns="http://www.w3.org/2000/svg"><g clip-path="url(#clip0)" fill="#1A1918"><path d="M27.895 6.448a.475.475 0 00-.37-.177H4.745a.475.475 0 00-.472.516l.95 10.915a.475.475 0 00.472.434h19.457a.475.475 0 00.464-.374L27.99 6.847a.476.476 0 00-.094-.4zM24.77 17.186H6.13L5.263 7.22h21.673l-2.166 9.966z"/><path d="M5.217 6.693l-.474-4.27A.474.474 0 004.27 2H.475a.475.475 0 000 .95h3.371l.428 3.848a.474.474 0 10.943-.105zM6.641 21.88l-.474-4.271a.475.475 0 00-.944.104l.475 4.272a.474.474 0 10.943-.105z"/><path d="M6.644 21.457a2.376 2.376 0 00-2.373 2.373 2.376 2.376 0 002.373 2.373 2.376 2.376 0 002.373-2.373 2.376 2.376 0 00-2.373-2.372zm0 3.797A1.425 1.425 0 015.22 23.83a1.425 1.425 0 012.848 0c0 .786-.639 1.424-1.424 1.424zm16.136-3.797a2.376 2.376 0 00-2.373 2.373 2.376 2.376 0 002.373 2.373 2.376 2.376 0 002.373-2.373 2.376 2.376 0 00-2.373-2.372zm0 3.797a1.425 1.425 0 01-1.424-1.424 1.424 1.424 0 111.424 1.424z"/><path d="M20.881 23.356H8.542a.475.475 0 000 .949h12.34a.475.475 0 100-.95z"/></g><defs><clipPath id="clip0"><path fill="#fff" d="M0 0h28v28H0z"/></clipPath></defs></svg>