<svg width="28" height="28" fill="none" xmlns="http://www.w3.org/2000/svg"><path d="M20.743 2.333c-2.936 0-5.361 2.727-6.342 4.014-.98-1.287-3.405-4.014-6.341-4.014-3.801 0-6.894 3.495-6.894 7.79 0 2.343.93 4.526 2.558 6.02a.543.543 0 00.087.113l10.201 10.18a.55.55 0 00.78 0l10.54-10.537.108-.105c.086-.082.171-.164.267-.27a.54.54 0 00.098-.13c1.182-1.449 1.831-3.316 1.831-5.271 0-4.295-3.092-7.79-6.893-7.79zm4.144 12.44a.505.505 0 00-.041.056c-.052.059-.109.111-.165.164l-10.28 10.274-9.685-9.665a.553.553 0 00-.128-.165C3.114 14.15 2.27 12.213 2.27 10.123c0-3.687 2.598-6.687 5.79-6.687 3.158 0 5.852 4.118 5.879 4.16.203.314.723.314.927 0 .027-.042 2.721-4.16 5.878-4.16 3.193 0 5.79 3 5.79 6.687 0 1.737-.585 3.389-1.646 4.65z" fill="#1A1918"/></svg>